/* XPM */
static char * icon24_xpm[] = {
"14 14 95 2",
"  	c None",
". 	c #ECEEE0",
"+ 	c #F0F1E6",
"@ 	c #E7EAD8",
"# 	c #FEFEF4",
"$ 	c #FEFEED",
"% 	c #FEFFEB",
"& 	c #E6EABB",
"* 	c #EAF171",
"= 	c #FDFEA2",
"- 	c #FEFDAA",
"; 	c #FDFDDC",
"> 	c #FEFE89",
", 	c #FCFF93",
"' 	c #D8DD80",
") 	c #EEF670",
"! 	c #FEFCC6",
"~ 	c #FCFE5A",
"{ 	c #FDFE69",
"] 	c #FCFF61",
"^ 	c #F5FA66",
"/ 	c #D4DB6F",
"( 	c #E0E961",
"_ 	c #F4FA6D",
": 	c #FCFD50",
"< 	c #FEFE51",
"[ 	c #F6FA45",
"} 	c #E3E957",
"| 	c #CAD073",
"1 	c #CED762",
"2 	c #EEF251",
"3 	c #FEFE40",
"4 	c #E5E959",
"5 	c #B0B65A",
"6 	c #55555B",
"7 	c #787E32",
"8 	c #9C9F46",
"9 	c #AEB573",
"0 	c #363538",
"a 	c #31312B",
"b 	c #3E3D24",
"c 	c #BCBB96",
"d 	c #AFAF81",
"e 	c #6C6A51",
"f 	c #747564",
"g 	c #75766D",
"h 	c #212122",
"i 	c #020201",
"j 	c #36361C",
"k 	c #3A3A29",
"l 	c #363722",
"m 	c #9F9E99",
"n 	c #97969D",
"o 	c #44463E",
"p 	c #343629",
"q 	c #373448",
"r 	c #343145",
"s 	c #5D5A64",
"t 	c #A3A4A9",
"u 	c #787885",
"v 	c #1916CD",
"w 	c #1D1DAF",
"x 	c #1C1B65",
"y 	c #1717D7",
"z 	c #9D9DC5",
"A 	c #B2B1A8",
"B 	c #262686",
"C 	c #0000CC",
"D 	c #0201EF",
"E 	c #0000FB",
"F 	c #2A2AAD",
"G 	c #A8A988",
"H 	c #6667AB",
"I 	c #1C1BDF",
"J 	c #0000E2",
"K 	c #5251A1",
"L 	c #313266",
"M 	c #1C1C9B",
"N 	c #0502FC",
"O 	c #0001EE",
"P 	c #525198",
"Q 	c #777689",
"R 	c #9999B5",
"S 	c #8586A3",
"T 	c #696B86",
"U 	c #5D5EB5",
"V 	c #64659A",
"W 	c #2B2DC4",
"X 	c #0E0FE8",
"Y 	c #7F8079",
"Z 	c #757477",
"` 	c #2C2AEF",
" .	c #5A598D",
"..	c #A5A5A6",
"+.	c #5D5D97",
"            . + @           ",
"          # $ $ % &         ",
"        * = - ; > , '       ",
"        ) ! ~ { ] ^ /       ",
"        ( _ : < [ } |       ",
"          1 2 3 4 5         ",
"          6 7 8 9           ",
"      0 a b c d e f g       ",
"  h i j k l m n o p q r s t ",
"  u v w x y z A B C D E F   ",
"    G H I J K L M N O P Q R ",
"        S T U V W X Y Z     ",
"          `  ...+.          ",
"                            "};
